<svg class="border shadow-md" viewBox="0 0 1351.68 760.32" xmlns="http://www.w3.org/2000/svg" preserveAspectRatio="none" style="width: 1351.68px; height: 760.32px;"><rect class="bg" id="bg" x="0" y="0" width="1351.68" height="760.32" fill="#ffffff"/><g transform="rotate(154 675.84 380.16)"><path d="M -450.56 620.32 S -235.28 609.32&#10;            0.00 620.32 215.28 558.32&#10;            450.56 620.32 442.12 532.32&#10;            901.12 620.32 911.68 599.32&#10;            1351.68 620.32 1566.96 589.32&#10;            1802.24 620.32 h 110 V 1360.3200000000002 H -450.56 Z" fill="#F9E9ED"/><path d="M -450.56 165.00 S -330.00 81.00&#10;            0.00 165.00 126.56 92.50&#10;            450.56 165.00 665.84 32.00&#10;            901.12 165.00 1116.40 55.00&#10;            1351.68 165.00 1545.24 53.00&#10;            1802.24 165.00 h 110 V -600 H -450.56 Z" fill="#AA72C9"/></g></svg>